<?xml version="1.0" encoding="UTF-8" standalone="no"?>
<!-- Created with Inkscape (http://www.inkscape.org/) -->

<svg
   width="1280"
   height="720"
   viewBox="0 0 338.66666 190.5"
   version="1.1"
   id="svg5"
   inkscape:version="1.2.1 (9c6d41e410, 2022-07-14)"
   sodipodi:docname="logo.svg"
   xmlns:inkscape="http://www.inkscape.org/namespaces/inkscape"
   xmlns:sodipodi="http://sodipodi.sourceforge.net/DTD/sodipodi-0.dtd"
   xmlns:xlink="http://www.w3.org/1999/xlink"
   xmlns="http://www.w3.org/2000/svg"
   xmlns:svg="http://www.w3.org/2000/svg">
  <sodipodi:namedview
     id="namedview7"
     pagecolor="#ffffff"
     bordercolor="#999999"
     borderopacity="1"
     inkscape:showpageshadow="0"
     inkscape:pageopacity="0"
     inkscape:pagecheckerboard="0"
     inkscape:deskcolor="#d1d1d1"
     inkscape:document-units="px"
     showgrid="false"
     inkscape:zoom="0.51445126"
     inkscape:cx="605.49954"
     inkscape:cy="388.76375"
     inkscape:window-width="1366"
     inkscape:window-height="697"
     inkscape:window-x="-8"
     inkscape:window-y="-8"
     inkscape:window-maximized="1"
     inkscape:current-layer="layer1" />
  <defs
     id="defs2">
    <linearGradient
       inkscape:collect="always"
       id="linearGradient1821">
      <stop
         style="stop-color:#ececec;stop-opacity:1;"
         offset="0"
         id="stop1817" />
      <stop
         style="stop-color:#ececec;stop-opacity:0;"
         offset="1"
         id="stop1819" />
    </linearGradient>
    <linearGradient
       inkscape:collect="always"
       id="linearGradient5971">
      <stop
         style="stop-color:#5c245c;stop-opacity:1;"
         offset="0"
         id="stop5967" />
      <stop
         style="stop-color:#5c245c;stop-opacity:0;"
         offset="1"
         id="stop5969" />
    </linearGradient>
    <linearGradient
       id="linearGradient3005"
       inkscape:swatch="solid">
      <stop
         style="stop-color:#eae05d;stop-opacity:1;"
         offset="0"
         id="stop3003" />
    </linearGradient>
    <rect
       x="136.78673"
       y="149.81404"
       width="640.5093"
       height="219.29301"
       id="rect243" />
    <linearGradient
       inkscape:collect="always"
       xlink:href="#linearGradient5971"
       id="linearGradient5977"
       x1="164.06235"
       y1="1.0285971"
       x2="165.09096"
       y2="145.03317"
       gradientUnits="userSpaceOnUse" />
    <linearGradient
       inkscape:collect="always"
       xlink:href="#linearGradient1821"
       id="linearGradient1823"
       x1="313.1366"
       y1="79.257889"
       x2="310.51135"
       y2="61.705456"
       gradientUnits="userSpaceOnUse" />
  </defs>
  <g
     inkscape:label="Layer 1"
     inkscape:groupmode="layer"
     id="layer1">
    <rect
       style="fill:#ffc68b;stroke-width:0;stroke-linecap:square;stroke-miterlimit:7.1;paint-order:markers stroke fill;fill-opacity:1"
       id="rect1604"
       width="337.89642"
       height="190.29176"
       x="0.51430202"
       y="0"
       ry="0" />
    <path
       id="text189"
       style="font-style:normal;font-variant:normal;font-weight:bold;font-stretch:normal;font-size:55.0936px;font-family:Arial;-inkscape-font-specification:'Arial, Bold';font-variant-ligatures:normal;font-variant-caps:normal;font-variant-numeric:normal;font-variant-east-asian:normal;fill:#5c245c;fill-opacity:1;stroke-width:0;stroke-linecap:square;stroke-miterlimit:7.1;paint-order:markers stroke fill"
       d="M 36.190966 53.323018 C 33.160104 53.323018 30.568883 53.78021 28.416791 54.694848 C 26.282634 55.609487 24.641562 56.945378 23.493779 58.70292 C 22.363931 60.442527 21.799123 62.316638 21.799123 64.325257 C 21.799123 66.492288 22.384189 68.429643 23.551767 70.138291 C 24.653134 69.654165 25.792416 69.241149 26.955713 68.887678 C 29.848137 68.45429 32.777897 68.31493 35.711347 68.255966 C 33.108084 67.542021 31.392794 66.850251 30.595945 66.181466 C 29.806845 65.517905 29.412341 64.719742 29.412341 63.787169 C 29.412341 62.764925 29.833792 61.94892 30.676694 61.33916 C 31.985884 60.388653 33.79726 59.913619 36.110759 59.913619 C 38.352521 59.913619 40.029162 60.362136 41.141076 61.258841 C 42.270924 62.137612 43.006037 63.590216 43.346784 65.616769 L 51.309556 65.266913 C 51.184017 61.644225 49.86577 58.747692 47.354996 56.577666 C 44.862157 54.407641 41.140777 53.323018 36.190966 53.323018 z M 113.34363 53.323018 C 110.13342 53.323018 107.30022 53.842903 104.84325 54.883081 C 102.99603 55.654247 101.2919 56.837741 99.731638 58.433875 C 98.189306 60.03001 96.969685 61.832753 96.07298 63.841372 C 94.871395 66.567354 94.271019 69.938921 94.271019 73.956159 C 94.271019 74.606815 94.293983 75.2394 94.331174 75.861151 C 97.088216 76.05377 99.848716 76.206371 102.61152 76.32779 C 102.52253 75.493026 102.4755 74.614744 102.4755 73.687115 C 102.4755 69.149788 103.48008 65.759886 105.4887 63.518124 C 107.49732 61.258428 110.14244 60.128954 113.42437 60.128954 C 116.70631 60.128954 119.33365 61.240586 121.3064 63.464414 C 123.29708 65.688242 124.2925 69.059809 124.2925 73.579201 C 124.2925 74.724402 124.22832 75.79846 124.10011 76.800835 C 126.86558 76.815912 129.63003 76.788819 132.39022 76.672226 C 132.47627 75.737033 132.52408 74.771783 132.52408 73.767926 C 132.52408 67.34752 130.77576 62.334775 127.27861 58.730021 C 123.7994 55.125268 119.15427 53.323018 113.34363 53.323018 z M 239.56382 53.323018 C 235.79766 53.323018 232.65025 53.977458 230.12154 55.286648 C 226.80374 56.990387 224.28419 59.438403 222.56252 62.630672 C 221.24116 65.080694 220.42884 67.800937 220.12161 70.789714 C 222.82773 71.154724 225.52351 71.584749 228.2177 72.013225 C 228.39858 68.28773 229.40757 65.42731 231.2515 63.437805 C 233.31392 61.231911 236.08461 60.128954 239.56382 60.128954 C 241.85939 60.128954 243.76939 60.693691 245.29379 61.823539 C 246.83612 62.935453 247.88544 64.459918 248.44139 66.3968 L 256.35051 64.917056 C 255.56141 61.294369 253.7856 58.461022 251.02375 56.416535 C 248.27983 54.354114 244.45983 53.323018 239.56382 53.323018 z M 59.137925 53.995136 L 59.137925 70.448727 C 59.165527 70.45442 59.193242 70.459786 59.220842 70.465481 C 66.580144 72.118301 73.999979 73.492518 81.484953 74.574567 C 82.953402 74.77572 84.424724 74.949475 85.897454 75.11167 C 86.71928 74.312966 87.432232 73.356814 88.030001 72.234472 C 88.908771 70.584535 89.348007 68.548859 89.348007 66.127756 C 89.348007 62.989289 88.585946 60.433728 87.061548 58.460977 C 85.53715 56.470292 83.644931 55.17876 81.385235 54.586935 C 79.914639 54.192385 76.758068 53.995136 71.915862 53.995136 L 59.137925 53.995136 z M 135.91393 53.995136 L 135.91393 60.667042 L 147.61611 60.667042 L 147.61611 74.949553 C 150.28135 74.456961 152.93071 73.888612 155.57834 73.317548 L 155.57834 60.667042 L 167.25397 60.667042 L 167.25397 53.995136 L 135.91393 53.995136 z M 205.80293 53.995136 L 205.80293 69.807652 C 206.28106 69.813327 206.75942 69.814293 207.23745 69.824899 C 209.46732 69.874368 211.58722 69.94751 213.7657 70.105277 L 213.7657 53.995136 L 205.80293 53.995136 z M 264.23253 53.995136 L 264.23253 75.49257 C 269.16114 75.652248 274.12407 75.637737 279.01078 74.985525 C 281.093 74.707614 281.97851 74.459158 283.95927 74.003463 C 287.83068 72.847345 291.77036 71.954981 295.76062 71.246498 L 295.76062 53.995136 L 287.79785 53.995136 L 287.79785 69.517419 L 272.1953 69.517419 L 272.1953 53.995136 L 264.23253 53.995136 z M 301.16759 53.995136 L 301.16759 60.667042 L 312.86977 60.667042 L 312.86977 70.10232 C 315.52883 70.178707 318.18166 70.364225 320.83254 70.579307 L 320.83254 60.667042 L 332.50762 60.667042 L 332.50762 53.995136 L 301.16759 53.995136 z M 172.60728 54.318383 L 172.60728 70.711858 C 174.88576 70.515725 177.1685 70.355749 179.4504 70.215161 C 179.82347 70.19697 180.19693 70.188496 180.57005 70.171798 L 180.57005 54.318383 L 172.60728 54.318383 z M 67.100697 60.667042 L 70.947409 60.667042 C 73.816865 60.667042 75.726868 60.756253 76.677375 60.935594 C 77.96863 61.168737 79.035731 61.751809 79.878633 62.684382 C 80.721536 63.616955 81.142987 64.800449 81.142987 66.235177 C 81.142987 67.400893 80.837946 68.423315 80.228187 69.302085 C 79.636361 70.180856 78.811786 70.826622 77.753674 71.239106 C 76.695562 71.651591 74.596929 71.857514 71.458462 71.857514 L 67.100697 71.857514 L 67.100697 60.667042 z M 45.983338 72.067428 C 41.18217 72.12956 36.31418 72.0929 31.591495 72.972127 C 30.491795 73.287145 29.390582 73.648077 28.351216 74.11187 C 29.958146 74.873964 31.978254 75.557525 34.415561 76.161731 C 37.733369 76.9867 39.858949 77.560605 40.791522 77.883418 C 42.154514 78.367639 43.104662 78.941544 43.642685 79.605105 C 44.198642 80.250733 44.476736 81.040221 44.476736 81.972794 C 44.476736 83.425456 43.821923 84.698653 42.512734 85.792633 C 41.221479 86.868679 39.293692 87.406406 36.729116 87.406406 C 34.308013 87.406406 32.380226 86.796818 30.945498 85.577299 C 29.528705 84.35778 28.587177 82.447985 28.12089 79.847541 L 20.37327 80.600471 C 20.893359 85.012259 22.4897 88.375151 25.161881 90.688649 C 27.834061 92.984214 31.662688 94.132023 36.648367 94.132023 C 40.073779 94.132023 42.934473 93.656496 45.230037 92.705989 C 47.525601 91.737548 49.300868 90.267102 50.556255 88.294351 C 51.811642 86.321601 52.439507 84.205389 52.439507 81.945693 C 52.439507 79.452853 51.910267 77.363651 50.852156 75.677846 C 49.95472 74.207909 48.748915 73.012695 47.237395 72.090095 C 46.819581 72.080773 46.402812 72.063812 45.983338 72.067428 z M 239.69876 72.288182 L 239.69876 73.676767 C 245.39705 74.356243 251.12409 74.812405 256.86156 75.143699 L 256.86156 72.288182 L 239.69876 72.288182 z M 210.42787 73.40378 C 209.29213 73.383726 208.15495 73.383678 207.0158 73.405751 C 206.6116 73.408189 206.20716 73.410791 205.80293 73.413143 L 205.80293 93.432311 L 213.7657 93.432311 L 213.7657 73.518099 C 212.65463 73.46312 211.54191 73.423452 210.42787 73.40378 z M 59.137925 73.5861 L 59.137925 93.432311 L 67.100697 93.432311 L 67.100697 78.556029 L 72.292512 78.556029 C 75.897266 78.556029 78.65017 78.367948 80.551185 77.991332 C 80.890534 77.917371 81.228436 77.823825 81.564618 77.712925 C 75.415424 76.767229 69.297641 75.66852 63.220383 74.384363 C 61.860592 74.120512 60.500437 73.848159 59.137925 73.5861 z M 219.98504 73.986217 C 220.03857 77.614788 220.80691 80.985632 222.29372 84.097555 C 223.83605 87.307758 226.14056 89.782784 229.20729 91.522391 C 232.27402 93.244065 235.86982 94.104922 239.99467 94.104922 C 243.24074 94.104922 246.44204 93.495333 249.59844 92.275814 C 252.77278 91.038361 255.19369 89.612274 256.86156 87.998206 L 256.86156 78.331826 C 251.12307 77.894872 245.40072 77.303311 239.69876 76.557414 L 239.69876 78.932494 L 248.81804 78.932494 L 248.81804 83.936424 C 247.61646 84.868997 246.17264 85.66716 244.48683 86.330722 C 242.81896 86.976349 241.15148 87.298986 239.48361 87.298986 C 236.112 87.298986 233.3855 86.133334 231.30515 83.801902 C 229.48539 81.746829 228.46137 78.799881 228.23341 74.960887 C 225.48917 74.591052 222.74078 74.253051 219.98504 73.986217 z M 315.37409 74.099058 C 314.53959 74.107384 313.70464 74.119661 312.86977 74.133058 L 312.86977 93.432311 L 320.83254 93.432311 L 320.83254 74.314392 C 319.01494 74.212854 317.19617 74.130451 315.37409 74.099058 z M 180.57005 74.108913 C 177.91061 74.30396 175.25315 74.529875 172.60728 74.840162 L 172.60728 93.432311 L 200.36886 93.432311 L 200.36886 86.787999 L 180.57005 86.787999 L 180.57005 74.108913 z M 295.76062 75.928165 C 295.49063 75.99069 295.22006 76.04641 294.95042 76.113934 C 292.49022 76.730015 292.77888 76.746933 290.3878 77.385736 C 289.69847 77.569897 289.00154 77.729385 288.30836 77.901158 C 288.09035 77.943676 287.98971 77.962101 287.79785 78.000201 L 287.79785 93.432311 L 295.76062 93.432311 L 295.76062 75.928165 z M 155.57834 77.940578 C 152.93958 78.474334 150.2912 78.959648 147.61611 79.298611 L 147.61611 93.432311 L 155.57834 93.432311 L 155.57834 77.940578 z M 264.23253 78.807334 L 264.23253 93.432311 L 272.1953 93.432311 L 272.1953 79.068987 C 270.25449 79.037708 268.31468 78.986809 266.3808 78.920175 C 265.66429 78.886934 264.94862 78.845343 264.23253 78.807334 z M 94.735464 79.205973 C 95.459519 83.049784 97.032938 86.233601 99.462834 88.751628 C 102.92412 92.320514 107.58702 94.104922 113.45147 94.104922 C 119.24419 94.104922 123.87098 92.311346 127.33226 88.724527 C 129.53228 86.433313 131.03035 83.582221 131.83202 80.175223 C 129.01332 80.170412 126.19349 80.115678 123.37391 80.055484 C 122.86723 81.564362 122.15255 82.841982 121.22565 83.882714 C 119.19909 86.160344 116.59871 87.298986 113.42437 87.298986 C 110.25004 87.298986 107.63187 86.151177 105.56945 83.855612 C 104.55669 82.719555 103.79355 81.322689 103.27811 79.667685 C 100.4271 79.560654 97.579025 79.410665 94.735464 79.205973 z "
       transform="scale(0.95353964,1.0487241)" />
    <text
       xml:space="preserve"
       transform="scale(0.26458333)"
       id="text241"
       style="font-weight:900;font-size:53.3332px;font-family:Arial;-inkscape-font-specification:'Arial, Heavy';white-space:pre;shape-inside:url(#rect243);display:inline;fill:#f7d6f2;stroke-width:0;stroke-linecap:square;stroke-miterlimit:7.1;paint-order:markers stroke fill" />
    <path
       sodipodi:type="star"
       style="fill:#ffffff;fill-opacity:1;stroke-width:0;stroke-linecap:square;stroke-miterlimit:7.1;paint-order:markers stroke fill"
       id="path3071"
       inkscape:flatsided="false"
       sodipodi:sides="5"
       sodipodi:cx="296.6788"
       sodipodi:cy="68.328697"
       sodipodi:r1="16.872919"
       sodipodi:r2="8.4364605"
       sodipodi:arg1="0.34653886"
       sodipodi:arg2="0.9748574"
       inkscape:rounded="0"
       inkscape:randomized="0"
       d="m 312.54869,74.059491 -11.13462,1.251405 -5.28151,9.881876 -4.63095,-10.202949 -11.03029,-1.969348 8.27254,-7.557175 -1.53559,-11.098999 9.74365,5.532358 10.08126,-4.890211 -2.25063,10.97636 z"
       inkscape:transform-center-x="0.09921448"
       inkscape:transform-center-y="0.82788268"
       transform="matrix(0.58771848,0,0,0.57101638,-151.36309,49.330384)" />
    <path
       sodipodi:type="star"
       style="fill:#ffffff;fill-opacity:1;stroke-width:0;stroke-linecap:square;stroke-miterlimit:7.1;paint-order:markers stroke fill"
       id="path3071-3"
       inkscape:flatsided="false"
       sodipodi:sides="5"
       sodipodi:cx="296.6788"
       sodipodi:cy="68.328697"
       sodipodi:r1="16.872919"
       sodipodi:r2="8.4364605"
       sodipodi:arg1="0.34653886"
       sodipodi:arg2="0.9748574"
       inkscape:rounded="0"
       inkscape:randomized="0"
       d="m 312.54869,74.059491 -11.13462,1.251405 -5.28151,9.881876 -4.63095,-10.202949 -11.03029,-1.969348 8.27254,-7.557175 -1.53559,-11.098999 9.74365,5.532358 10.08126,-4.890211 -2.25063,10.97636 z"
       inkscape:transform-center-x="0.096512159"
       inkscape:transform-center-y="0.75877635"
       transform="matrix(0.57168531,0,0,0.52335154,142.92806,24.75671)" />
    <path
       id="path5235"
       style="font-style:normal;font-variant:normal;font-weight:bold;font-stretch:normal;font-size:55.0936px;font-family:Arial;-inkscape-font-specification:'Arial, Bold';font-variant-ligatures:normal;font-variant-caps:normal;font-variant-numeric:normal;font-variant-east-asian:normal;fill:url(#linearGradient5977);fill-opacity:1;stroke-width:0;stroke-linecap:square;stroke-miterlimit:7.1;paint-order:markers stroke fill"
       d="m 34.509521,144.86442 c -2.890047,0 -5.360879,-0.47946 -7.412984,-1.43867 -2.035004,-0.9592 -3.599831,-2.36018 -4.694287,-4.20336 -1.077355,-1.82437 -1.615922,-3.78979 -1.615922,-5.89628 0,-2.27262 0.557884,-4.30437 1.671216,-6.09627 1.050197,0.50772 2.136547,0.94086 3.245797,1.31155 2.758041,0.45451 5.551683,0.60066 8.348844,0.66249 -2.482314,0.74873 -4.117911,1.47421 -4.877739,2.17558 -0.752438,0.69589 -1.128613,1.53295 -1.128613,2.51096 0,1.07205 0.40187,1.92781 1.205611,2.56728 1.248364,0.99682 2.975583,1.495 5.181596,1.495 2.137609,0 3.736353,-0.47037 4.796607,-1.41076 1.077355,-0.92159 1.778314,-2.44497 2.10323,-4.57027 l 7.592819,0.3669 c -0.119707,3.7992 -1.376708,6.83687 -3.77083,9.11263 -2.377021,2.27575 -5.925504,3.41322 -10.645345,3.41322 z m 73.568119,0 c -3.06106,0 -5.76263,-0.54521 -8.105446,-1.63607 -1.761397,-0.80874 -3.386352,-2.0499 -4.874124,-3.7238 -1.470674,-1.67391 -2.633631,-3.56449 -3.488675,-5.67098 -1.145759,-2.8588 -1.718241,-6.39464 -1.718241,-10.60762 0,-0.68236 0.0219,-1.34576 0.05736,-1.99781 2.628949,-0.202 5.261195,-0.36204 7.895638,-0.48937 -0.08486,0.87543 -0.129701,1.79651 -0.129701,2.76934 0,4.7584 0.957903,8.31347 2.873199,10.66446 1.9153,2.3698 4.43753,3.55431 7.56698,3.55431 3.12946,0 5.63473,-1.1658 7.51583,-3.49798 1.89819,-2.33218 2.84736,-5.86803 2.84736,-10.60762 0,-1.201 -0.0612,-2.32739 -0.18345,-3.37861 2.63699,-0.0158 5.273,0.0126 7.90495,0.13488 0.082,0.98076 0.12764,1.99304 0.12764,3.04581 0,6.73323 -1.66709,11.99022 -5.00176,15.77061 -3.31757,3.78039 -7.74688,5.67045 -13.28756,5.67045 z m 120.35595,0 c -3.59118,0 -6.59236,-0.68632 -9.00358,-2.0593 -3.16366,-1.78675 -5.56615,-4.35405 -7.20783,-7.70186 -1.25997,-2.56939 -2.03455,-5.42218 -2.3275,-8.55658 2.58039,-0.38279 5.15092,-0.83377 7.71994,-1.28313 0.17248,3.90702 1.13459,6.90681 2.89285,8.99325 1.9666,2.31338 4.60856,3.47008 7.92612,3.47008 2.18892,0 4.01018,-0.59226 5.46376,-1.77716 1.47067,-1.16609 2.47124,-2.76483 3.00136,-4.79609 l 7.54166,1.55185 c -0.75244,3.7992 -2.44574,6.7706 -5.07928,8.9147 -2.61643,2.16291 -6.25896,3.24424 -10.9275,3.24424 z M 56.390356,144.15956 v -17.25528 c 0.02632,-0.006 0.05275,-0.0116 0.07906,-0.0176 7.017387,-1.73335 14.092493,-3.17453 21.229713,-4.3093 1.400224,-0.21095 2.803188,-0.39317 4.207494,-0.56327 0.783644,0.83762 1.463472,1.84036 2.033469,3.01739 0.837942,1.73033 1.256771,3.86519 1.256771,6.40426 0,3.29138 -0.726656,5.97146 -2.18023,8.04033 -1.453574,2.08768 -3.25788,3.44214 -5.412589,4.0628 -1.402272,0.41378 -4.412187,0.62064 -9.029423,0.62064 z m 73.208964,0 v -6.99699 h 11.15849 v -14.97841 c 2.54141,0.51659 5.06768,1.11263 7.5923,1.71152 v 13.26689 h 11.13318 v 6.99699 z m 66.64193,0 v -16.58297 c 0.45591,-0.006 0.91205,-0.007 1.36787,-0.0181 2.12627,-0.0519 4.14768,-0.12858 6.22494,-0.29403 v 16.89509 z m 55.71494,0 v -22.54488 c 4.69962,-0.16746 9.43197,-0.15224 14.09164,0.53175 1.98548,0.29145 2.82985,0.55202 4.71859,1.02991 3.69154,1.21245 7.44818,2.1483 11.25305,2.8913 v 18.09192 h -7.59282 V 127.88097 H 259.549 v 16.27859 z m 35.21904,0 v -6.99699 h 11.15849 v -9.895 c 2.53552,-0.0801 5.0651,-0.27467 7.59282,-0.50023 v 10.39523 h 11.13265 v 6.99699 z m -122.58735,-0.339 v -17.19223 c 2.17262,0.20569 4.3493,0.37346 6.52519,0.5209 0.35573,0.0191 0.71184,0.028 1.06763,0.0455 v 16.62586 z M 63.983175,137.16257 h 3.667992 c 2.73614,0 4.557404,-0.0936 5.46375,-0.28164 1.231262,-0.2445 2.248786,-0.85598 3.052526,-1.83399 0.803741,-0.97801 1.205612,-2.21917 1.205612,-3.72381 0,-1.22251 -0.290869,-2.29475 -0.872298,-3.21634 -0.56433,-0.92159 -1.350595,-1.59882 -2.359547,-2.0314 -1.008951,-0.43258 -3.010081,-0.64854 -6.002734,-0.64854 H 63.983175 Z M 43.846936,125.20671 c -4.578104,-0.0652 -9.219926,-0.0267 -13.723193,-0.94878 -1.048608,-0.33037 -2.098658,-0.70888 -3.089735,-1.19528 1.532272,-0.79922 3.458525,-1.51609 5.782594,-2.14973 3.163661,-0.86517 5.190486,-1.46704 6.079731,-1.80558 1.299667,-0.50781 2.205671,-1.10968 2.718697,-1.80557 0.530127,-0.67709 0.795301,-1.50504 0.795301,-2.48306 0,-1.52344 -0.62439,-2.85867 -1.872754,-4.00595 -1.231263,-1.12848 -3.069484,-1.69241 -5.514909,-1.69241 -2.308618,0 -4.146839,0.63929 -5.514909,1.91823 -1.350968,1.27894 -2.248752,3.28179 -2.693376,6.00894 l -7.387662,-0.78962 c 0.495925,-4.62675 2.0181,-8.15349 4.56613,-10.57971 2.54803,-2.40742 6.198777,-3.61115 10.95282,-3.61115 3.266266,0 5.994051,0.49869 8.182962,1.49551 2.188912,1.01563 3.881699,2.55772 5.07876,4.6266 1.197062,2.06887 1.795756,4.28819 1.795756,6.65799 0,2.6143 -0.504652,4.80529 -1.513602,6.57324 -0.855741,1.54156 -2.005524,2.79501 -3.446818,3.76256 -0.398402,0.01 -0.795808,0.0276 -1.195793,0.0238 z M 228.56227,124.9752 v -1.45624 c 5.43354,-0.71259 10.8945,-1.19097 16.36541,-1.53841 v 2.99465 z m -27.91096,-1.16995 c -1.08297,0.021 -2.16732,0.0211 -3.25354,-0.002 -0.38542,-0.003 -0.77107,-0.005 -1.15652,-0.008 v -20.99459 h 7.59281 v 20.88452 c -1.05944,0.0576 -2.12047,0.0993 -3.18275,0.11989 z M 56.390356,123.61404 v -20.8132 h 7.592819 v 15.60112 h 4.950601 c 3.437276,0 6.062279,0.19724 7.874972,0.59221 0.323583,0.0776 0.645786,0.17567 0.966349,0.29197 -5.863501,0.99178 -11.697049,2.14402 -17.491956,3.49074 -1.296614,0.27671 -2.593576,0.56233 -3.892785,0.83716 z m 153.374094,-0.41961 c 0.051,-3.80537 0.78369,-7.34046 2.20142,-10.604 1.47067,-3.36662 3.66811,-5.96224 6.59236,-7.78661 2.92425,-1.80556 6.35299,-2.70836 10.2862,-2.70836 3.09525,0 6.14782,0.63929 9.15757,1.91823 3.02686,1.29775 5.3353,2.79332 6.92568,4.48603 v 10.13737 c -5.47188,0.45824 -10.92837,1.07862 -16.36541,1.86086 v -2.4908 h 8.69559 v -5.24774 c -1.14575,-0.97801 -2.52249,-1.81507 -4.12998,-2.51096 -1.59038,-0.67708 -3.18039,-1.01544 -4.77077,-1.01544 -3.21496,0 -5.81479,1.22245 -7.79848,3.66747 -1.73522,2.15521 -2.71166,5.24574 -2.92903,9.27179 -2.61674,0.38786 -5.23744,0.74232 -7.86515,1.02216 z m 90.95724,-0.11834 c -0.79573,-0.009 -1.59188,-0.0216 -2.38797,-0.0357 V 102.8008 h 7.59282 v 20.04943 c -1.73315,0.10648 -3.46742,0.1929 -5.20485,0.22582 z m -128.54099,-0.0103 c -2.53588,-0.20455 -5.06988,-0.44148 -7.59282,-0.76688 v -19.49804 h 26.47177 v 6.96805 H 172.1807 Z m 109.83877,-1.9079 c -0.25744,-0.0656 -0.51544,-0.124 -0.77256,-0.19482 -2.34589,-0.6461 -2.07065,-0.66384 -4.35064,-1.33377 -0.6573,-0.19313 -1.32185,-0.36039 -1.98282,-0.54053 -0.20789,-0.0446 -0.30385,-0.0639 -0.4868,-0.10387 v -16.18403 h 7.59282 z m -133.66936,-2.11046 c -2.51616,-0.55977 -5.0415,-1.06873 -7.5923,-1.42421 v -14.82235 h 7.5923 z m 103.60608,-0.90899 v -15.33757 h 7.59281 v 15.06317 c -1.85063,0.0328 -3.70032,0.0862 -5.54435,0.15606 -0.68322,0.0349 -1.36564,0.0785 -2.04846,0.11834 z M 90.33402,117.72038 c 0.690415,-4.0311 2.190733,-7.37005 4.507735,-10.01076 3.300473,-3.74278 7.746725,-5.61413 13.338715,-5.61413 5.52359,0 9.93542,1.88097 13.23588,5.64255 2.09781,2.40285 3.52628,5.39286 4.2907,8.96586 -2.68774,0.005 -5.37656,0.0624 -8.06514,0.12557 -0.48314,-1.58239 -1.16462,-2.92226 -2.04845,-4.0137 -1.93241,-2.38861 -4.41197,-3.58273 -7.43883,-3.58273 -3.02685,0 -5.52338,1.20373 -7.48998,3.61115 -0.965706,1.19141 -1.693386,2.65634 -2.184876,4.39198 -2.718553,0.11224 -5.434306,0.26954 -8.145754,0.48421 z" />
    <path
       sodipodi:type="star"
       style="fill:#f2f2f2;fill-opacity:1;stroke-width:0;stroke-linecap:square;stroke-miterlimit:7.1;paint-order:markers stroke fill"
       id="path5237"
       inkscape:flatsided="false"
       sodipodi:sides="5"
       sodipodi:cx="296.6788"
       sodipodi:cy="68.328697"
       sodipodi:r1="16.872919"
       sodipodi:r2="8.4364605"
       sodipodi:arg1="0.34653886"
       sodipodi:arg2="0.9748574"
       inkscape:rounded="0"
       inkscape:randomized="0"
       d="m 312.54869,74.059491 -11.13462,1.251405 -5.28151,9.881876 -4.63095,-10.202949 -11.03029,-1.969348 8.27254,-7.557175 -1.53559,-11.098999 9.74365,5.532358 10.08126,-4.890211 -2.25063,10.97636 z"
       inkscape:transform-center-x="0.09921448"
       inkscape:transform-center-y="-0.82787925"
       transform="matrix(0.58771848,0,0,-0.57101638,-151.36309,151.45518)" />
    <path
       sodipodi:type="star"
       style="fill:url(#linearGradient1823);fill-opacity:1;stroke-width:0;stroke-linecap:square;stroke-miterlimit:7.1;paint-order:markers stroke fill"
       id="path5239"
       inkscape:flatsided="false"
       sodipodi:sides="5"
       sodipodi:cx="296.6788"
       sodipodi:cy="68.328697"
       sodipodi:r1="16.872919"
       sodipodi:r2="8.4364605"
       sodipodi:arg1="0.34653886"
       sodipodi:arg2="0.9748574"
       inkscape:rounded="0"
       inkscape:randomized="0"
       d="m 312.54869,74.059491 -11.13462,1.251405 -5.28151,9.881876 -4.63095,-10.202949 -11.03029,-1.969348 8.27254,-7.557175 -1.53559,-11.098999 9.74365,5.532358 10.08126,-4.890211 -2.25063,10.97636 z"
       inkscape:transform-center-x="0.09921448"
       inkscape:transform-center-y="-0.80714747"
       transform="matrix(0.58771848,0,0,-0.55671693,138.43122,177.84274)" />
  </g>
</svg>
